<?xml version="1.0" standalone="no"?>
<!DOCTYPE svg PUBLIC "-//W3C//DTD SVG 20010904//EN"
 "http://www.w3.org/TR/2001/REC-SVG-20010904/DTD/svg10.dtd">
<svg version="1.0" xmlns="http://www.w3.org/2000/svg"
 width="300.000000pt" height="300.000000pt" viewBox="0 0 300.000000 300.000000"
 preserveAspectRatio="xMidYMid meet">
<metadata>
Created by potrace 1.10, written by Peter Selinger 2001-2011
</metadata>
<g transform="translate(0.000000,300.000000) scale(0.100000,-0.100000)"
fill="#000000" stroke="none">
<path d="M87 2093 c-11 -11 -8 -624 3 -665 13 -45 63 -96 110 -108 19 -6 158
-11 308 -12 l272 -3 0 83 0 82 -260 0 -260 0 0 315 0 315 -83 0 c-46 0 -87 -3
-90 -7z"/>
<path d="M1015 2091 c-63 -15 -114 -62 -134 -120 -14 -43 -15 -491 -1 -541 11
-41 61 -94 103 -109 18 -7 153 -11 368 -11 l339 0 0 80 0 80 -320 0 -320 0 0
80 0 80 255 0 255 0 0 75 0 75 -255 0 -256 0 3 78 3 77 313 3 313 2 -3 78 -3
77 -315 2 c-173 0 -328 -2 -345 -6z"/>
<path d="M1810 1705 l0 -395 85 0 85 0 0 315 0 315 155 0 155 0 0 -315 0 -315
90 0 90 0 0 315 0 315 150 0 c138 0 150 -1 160 -20 6 -10 10 -23 9 -27 -1 -4
-1 -137 0 -295 l1 -288 85 0 86 0 -3 338 -3 339 -28 36 c-57 75 -32 72 -604
75 l-513 3 0 -396z"/>
<path d="M887 1193 c-4 -3 -7 -71 -7 -149 l0 -143 48 2 47 2 0 115 0 115 -27
-2 c-26 -2 -28 1 -28 33 0 32 -16 45 -33 27z m53 -178 c0 -50 -4 -85 -10 -85
-6 0 -10 35 -10 85 0 50 4 85 10 85 6 0 10 -35 10 -85z"/>
<path d="M1242 1188 c-8 -8 -12 -55 -12 -145 0 -129 1 -134 23 -142 12 -5 31
-5 42 -1 11 4 26 5 33 3 9 -4 12 15 12 71 l0 76 -30 0 c-23 0 -30 -4 -30 -20
0 -11 5 -20 11 -20 15 0 7 -72 -8 -78 -10 -3 -13 24 -13 112 0 63 4 117 9 120
11 7 21 -17 21 -50 0 -17 6 -24 20 -24 17 0 20 7 20 39 0 23 -7 46 -16 55 -18
19 -65 21 -82 4z"/>
<path d="M1380 1050 l0 -150 45 0 c38 0 45 3 45 20 0 15 -7 20 -25 20 -23 0
-25 3 -25 50 0 47 2 50 25 50 18 0 25 5 25 20 0 15 -7 20 -25 20 -22 0 -25 4
-25 40 0 36 3 40 25 40 18 0 25 5 25 20 0 17 -7 20 -45 20 l-45 0 0 -150z"/>
<path d="M1510 1050 c0 -127 2 -150 15 -150 12 0 15 18 15 102 0 56 2 99 5 97
2 -3 9 -38 15 -79 17 -121 17 -120 50 -120 l30 0 0 150 c0 127 -2 150 -15 150
-12 0 -15 -20 -16 -112 l-1 -113 -14 80 c-25 155 -22 145 -54 145 l-30 0 0
-150z"/>
<path d="M1680 1051 l0 -151 50 0 c43 0 50 3 50 20 0 15 -7 20 -25 20 -23 0
-25 3 -25 50 0 47 2 50 25 50 18 0 25 5 25 20 0 15 -7 20 -25 20 -22 0 -25 4
-25 40 0 36 2 40 26 40 19 0 25 5 22 18 -2 13 -15 18 -51 20 l-47 3 0 -150z"/>
<path d="M1810 1050 c0 -143 1 -150 20 -150 18 0 20 7 20 71 0 52 3 70 13 67
7 -3 13 -29 15 -71 3 -63 4 -67 26 -67 23 0 24 2 19 68 -4 44 -11 71 -21 79
-13 11 -13 13 1 19 13 5 17 19 17 60 0 49 -2 55 -26 64 -14 6 -39 10 -55 10
l-29 0 0 -150z m68 68 c-4 -59 -28 -63 -28 -4 0 35 4 46 16 46 12 0 14 -9 12
-42z"/>
<path d="M1985 1188 c-2 -7 -9 -62 -15 -123 -6 -60 -13 -122 -16 -137 -5 -23
-2 -28 15 -28 16 0 22 8 27 40 10 61 44 48 44 -16 0 -17 6 -24 20 -24 24 0 24
-1 5 160 -8 69 -15 128 -15 133 0 12 -60 8 -65 -5z m44 -140 c0 -16 -3 -28 -9
-28 -6 0 -9 25 -9 58 1 47 3 52 9 27 4 -16 8 -42 9 -57z"/>
<path d="M2117 1194 c-4 -4 -7 -72 -7 -151 l0 -143 50 0 c43 0 50 3 50 20 0
15 -7 20 -25 20 l-24 0 -3 127 c-3 106 -6 128 -18 131 -9 1 -19 0 -23 -4z"/>
<path d="M2247 1193 c-4 -3 -7 -71 -7 -150 0 -136 1 -143 20 -143 19 0 20 7
21 103 2 109 3 106 25 -60 4 -33 9 -43 24 -43 14 0 20 10 25 43 3 23 10 69 14
102 8 58 9 56 10 -42 1 -96 2 -103 21 -103 20 0 20 5 18 148 l-3 147 -31 3
c-29 3 -32 0 -37 -35 -4 -21 -7 -63 -8 -93 -1 -68 -13 -37 -23 63 -7 65 -9 67
-35 67 -15 0 -31 -3 -34 -7z"/>
<path d="M2460 1055 l0 -145 26 -10 c18 -7 34 -7 52 3 l27 12 3 143 c2 136 2
142 -17 142 -19 0 -21 -8 -23 -132 -2 -94 -7 -133 -15 -136 -10 -3 -13 28 -13
132 0 129 -1 136 -20 136 -19 0 -20 -7 -20 -145z"/>
<path d="M2622 1188 c-22 -22 -15 -103 12 -135 46 -56 64 -123 31 -123 -11 0
-15 11 -15 40 0 33 -3 40 -20 40 -17 0 -20 -7 -20 -45 0 -37 4 -47 26 -62 53
-34 99 25 80 102 -3 12 -19 39 -36 60 -22 28 -30 48 -28 69 4 42 22 35 26 -9
2 -27 8 -35 23 -35 16 0 19 7 19 43 0 24 -5 48 -12 55 -16 16 -70 16 -86 0z"/>
<path d="M2760 1050 l0 -150 25 0 25 0 0 150 0 150 -25 0 -25 0 0 -150z"/>
<path d="M2856 1184 c-13 -12 -16 -39 -16 -133 0 -134 8 -154 60 -154 41 0 60
24 60 75 0 34 -3 38 -25 38 -22 0 -25 -4 -25 -40 0 -22 -4 -40 -10 -40 -6 0
-10 47 -10 121 0 77 4 118 10 114 6 -3 10 -22 10 -41 0 -30 3 -34 25 -34 22 0
25 4 25 38 0 45 -24 72 -63 72 -14 0 -33 -7 -41 -16z"/>
<path d="M1009 1135 c-3 -2 3 -60 13 -127 17 -109 17 -123 3 -130 -26 -15 -16
-29 18 -26 l32 3 17 115 c21 146 22 170 4 170 -18 0 -26 -22 -26 -76 0 -24 -4
-44 -10 -44 -5 0 -10 20 -10 44 0 24 -3 51 -6 60 -6 15 -25 21 -35 11z"/>
</g>
</svg>
