<?xml version="1.0" standalone="no"?>
<!DOCTYPE svg PUBLIC "-//W3C//DTD SVG 20010904//EN"
 "http://www.w3.org/TR/2001/REC-SVG-20010904/DTD/svg10.dtd">
<svg version="1.0" xmlns="http://www.w3.org/2000/svg"
 width="300.000000pt" height="300.000000pt" viewBox="0 0 300.000000 300.000000"
 preserveAspectRatio="xMidYMid meet">
<metadata>
Created by potrace 1.10, written by Peter Selinger 2001-2011
</metadata>
<g transform="translate(0.000000,300.000000) scale(0.100000,-0.100000)"
fill="#000000" stroke="none">
<path d="M90 2128 c-49 -26 -51 -39 -48 -383 3 -353 3 -351 70 -417 59 -57 76
-60 384 -62 264 -1 283 0 303 18 14 13 21 31 21 55 0 72 21 107 34 56 9 -35
84 -103 126 -115 19 -6 180 -10 366 -10 320 0 332 1 358 21 24 19 26 26 26 94
0 57 -4 78 -19 96 l-19 24 -301 3 -301 3 0 34 0 35 214 0 c123 0 226 4 243 10
39 14 53 46 53 124 0 52 -4 66 -23 84 -22 21 -33 22 -252 24 l-230 3 0 35 0
35 291 3 c342 3 326 -3 332 111 4 61 1 70 -21 97 l-25 29 -297 3 c-319 3 -387
-3 -446 -42 -48 -32 -89 -104 -93 -164 -2 -26 -4 -143 -5 -261 l-1 -214 -26
24 c-25 24 -27 24 -265 27 l-239 3 0 284 0 284 -24 28 c-21 24 -32 28 -92 31
-44 2 -78 -2 -94 -10z m170 -343 l0 -315 265 0 265 0 0 -86 0 -87 -292 7
c-285 7 -294 8 -335 32 -27 16 -48 38 -62 67 -20 41 -21 59 -21 370 l0 327 90
0 90 0 0 -315z m1420 233 l0 -83 -312 0 -313 0 -3 -77 -3 -78 256 0 255 0 0
-80 0 -79 -255 2 -255 2 0 -77 0 -78 325 0 325 0 0 -80 0 -80 -352 0 -351 0
-43 25 c-28 16 -49 39 -63 68 -20 40 -21 60 -21 288 0 138 5 260 11 281 13 48
69 103 117 116 20 6 182 10 360 11 l322 1 0 -82z"/>
<path d="M1798 2121 l-25 -20 -7 -373 c-7 -327 -6 -378 8 -410 18 -43 45 -52
143 -46 101 6 98 -6 101 327 2 209 6 287 15 293 14 9 178 11 201 2 14 -5 16
-39 16 -275 0 -310 4 -332 63 -343 20 -4 63 -6 97 -5 52 2 64 6 80 27 19 23
20 42 20 301 0 202 3 280 12 289 14 14 185 17 206 4 10 -7 14 -75 18 -283 3
-151 7 -283 9 -295 6 -30 46 -44 129 -44 63 0 75 3 94 23 22 23 22 28 22 351
0 302 -1 330 -19 364 -22 43 -62 81 -111 108 -33 18 -67 19 -541 22 -492 3
-506 2 -531 -17z m1050 -36 c20 -9 47 -26 60 -38 51 -48 52 -53 52 -407 l0
-330 -90 0 -90 0 -2 313 -3 312 -152 3 -153 3 0 -316 0 -315 -90 0 -90 0 0
315 0 315 -155 0 -155 0 0 -315 0 -315 -90 0 -90 0 0 395 0 395 505 0 c434 0
511 -2 543 -15z"/>
<path d="M1244 1230 c-46 -19 -54 -46 -54 -186 0 -130 0 -132 27 -158 25 -25
33 -27 78 -22 60 6 41 6 208 2 76 -1 140 1 143 6 3 4 13 4 23 -1 9 -6 87 -8
177 -5 87 3 166 5 174 4 8 0 100 -2 203 -3 145 -2 191 0 199 10 9 11 15 11 34
-2 31 -20 63 -22 102 -6 27 11 38 11 69 -1 38 -15 51 -15 89 4 14 7 28 7 40 0
11 -5 28 -7 39 -5 26 6 41 6 95 -2 42 -7 48 -5 78 26 40 41 45 99 10 136 l-21
23 21 23 c68 72 -26 195 -119 157 -23 -10 -36 -10 -56 -1 -20 9 -30 9 -47 -2
-17 -11 -26 -11 -46 -1 -25 13 -88 9 -104 -6 -5 -5 -17 -5 -27 1 -10 5 -51 9
-91 9 -40 -1 -86 -1 -103 0 -16 0 -40 0 -52 0 -13 0 -37 0 -53 1 -20 2 -39 -6
-54 -21 l-25 -22 -27 21 c-30 24 -54 27 -72 9 -9 -9 -17 -9 -34 0 -46 22 -65
23 -92 1 -20 -16 -30 -18 -40 -10 -26 21 -95 30 -134 17 -14 -5 -29 -3 -37 4
-9 8 -25 9 -42 5 -36 -9 -153 -14 -157 -6 -4 5 -101 5 -211 -1 -16 0 -43 2
-60 5 -16 4 -40 2 -51 -3z m86 -49 c5 -11 10 -36 10 -55 0 -32 -3 -36 -25 -36
-22 0 -24 4 -22 36 1 22 -3 39 -10 41 -10 4 -13 -24 -13 -117 0 -93 3 -121 13
-118 15 6 23 78 8 78 -6 0 -11 9 -11 20 0 16 7 20 30 20 l30 0 0 -74 c0 -65
-2 -75 -17 -75 -10 1 -28 -2 -40 -6 -15 -5 -27 -1 -42 14 -19 19 -21 33 -21
140 0 135 7 151 65 151 24 0 38 -6 45 -19z m150 -1 c0 -16 -7 -20 -30 -20 -28
0 -30 -2 -30 -40 0 -36 3 -40 25 -40 18 0 25 -5 25 -20 0 -15 -7 -20 -25 -20
-23 0 -25 -3 -25 -50 0 -49 1 -50 30 -50 23 0 30 -4 30 -20 0 -17 -7 -20 -52
-20 l-53 0 0 150 0 150 53 0 c45 0 52 -3 52 -20z m94 3 c2 -10 10 -65 17 -123
15 -120 23 -100 17 43 -3 88 -2 97 14 97 16 0 18 -13 18 -150 l0 -150 -33 0
-33 0 -16 128 -16 127 2 -128 c1 -121 0 -127 -19 -127 -19 0 -20 6 -17 150 l3
150 29 0 c19 0 30 -6 34 -17z m206 -3 c0 -15 -7 -20 -25 -20 -22 0 -25 -4 -25
-40 0 -36 3 -40 25 -40 18 0 25 -5 25 -20 0 -15 -7 -20 -27 -20 -27 0 -28 -2
-28 -50 0 -48 1 -50 28 -50 20 0 27 -5 27 -20 0 -17 -7 -20 -50 -20 l-50 0 0
150 0 150 50 0 c43 0 50 -3 50 -20z m130 0 c26 -26 27 -84 1 -107 -16 -13 -17
-19 -7 -27 8 -6 16 -41 19 -78 6 -67 6 -68 -18 -68 -23 0 -24 4 -27 67 -2 44
-7 68 -16 71 -11 3 -13 -11 -10 -67 3 -68 2 -71 -19 -71 -23 0 -23 1 -23 150
l0 150 40 0 c27 0 47 -7 60 -20z m144 -22 c4 -24 12 -91 19 -150 l13 -108 -22
0 c-18 0 -24 7 -29 40 -4 25 -12 40 -21 40 -10 0 -14 -12 -14 -40 0 -36 -2
-40 -26 -40 -24 0 -26 3 -21 33 3 17 11 85 18 150 l12 117 33 0 c31 0 33 -2
38 -42z m106 -88 l0 -130 30 0 c23 0 30 -4 30 -20 0 -18 -7 -20 -55 -20 l-55
0 0 150 0 150 25 0 25 0 0 -130z m155 63 c4 -38 11 -84 15 -103 7 -29 8 -23 9
36 1 39 4 86 7 103 6 27 10 31 40 31 l34 0 0 -150 c0 -143 -1 -150 -20 -150
-19 0 -20 7 -21 118 l-2 117 -12 -105 c-7 -58 -14 -111 -14 -117 -1 -7 -10
-13 -20 -13 -16 0 -21 9 -25 43 -3 23 -9 74 -14 112 l-9 70 -2 -112 c-1 -106
-2 -113 -21 -113 -19 0 -20 7 -20 150 l0 150 34 0 34 0 7 -67z m185 -69 c0
-104 3 -135 13 -131 9 3 12 39 12 135 0 130 0 132 23 132 22 0 22 -2 22 -139
0 -133 -1 -141 -22 -155 -30 -21 -54 -20 -77 3 -17 17 -19 35 -20 155 l-1 136
25 0 25 0 0 -136z m208 124 c7 -7 12 -31 12 -55 0 -36 -3 -43 -19 -43 -15 0
-21 8 -23 35 -4 44 -22 51 -26 10 -2 -23 6 -42 32 -75 31 -39 36 -52 36 -98 0
-47 -3 -54 -25 -64 -18 -8 -35 -9 -53 -2 -24 8 -28 16 -32 62 -5 49 -4 52 17
52 20 0 23 -5 23 -40 0 -29 4 -40 15 -40 33 0 15 67 -31 123 -27 32 -34 113
-12 135 16 16 70 16 86 0z m102 -138 l0 -150 -25 0 -25 0 0 150 0 150 25 0 25
0 0 -150z m134 134 c10 -9 16 -33 16 -61 0 -37 -3 -44 -16 -39 -9 3 -20 6 -25
6 -5 0 -9 18 -9 40 0 22 -4 40 -10 40 -6 0 -10 -47 -10 -120 0 -73 4 -120 10
-120 6 0 10 18 10 40 0 36 2 40 26 40 24 0 25 -2 22 -47 -3 -40 -7 -50 -30
-63 -25 -13 -31 -13 -55 0 -28 16 -28 16 -31 138 -1 73 2 130 8 142 13 25 71
27 94 4z"/>
<path d="M1850 1114 c0 -59 24 -55 28 4 2 33 0 42 -12 42 -12 0 -16 -11 -16
-46z"/>
<path d="M2009 1082 c-3 -45 -1 -62 9 -62 13 0 14 45 3 95 -6 25 -8 19 -12
-33z"/>
<path d="M861 1204 c-19 -24 -21 -40 -21 -151 0 -166 14 -193 97 -193 26 0 40
-7 55 -25 25 -32 67 -33 97 -2 25 27 26 32 47 180 14 99 14 111 -1 133 -14 22
-22 24 -88 24 -66 0 -75 2 -97 28 -34 37 -63 39 -89 6z m59 -38 c0 -32 2 -35
28 -33 l27 2 3 -111 c2 -89 0 -114 -12 -123 -9 -7 -21 -9 -28 -5 -7 5 -23 7
-35 5 -23 -2 -23 -2 -23 148 0 144 1 151 20 151 16 0 20 -7 20 -34z m130 -102
c0 -47 4 -73 10 -69 6 3 10 37 10 76 0 67 1 69 26 69 19 0 24 -4 20 -17 -3
-10 -12 -72 -21 -138 -9 -66 -19 -123 -23 -127 -4 -4 -19 -10 -34 -13 -24 -6
-28 -4 -28 14 0 12 6 21 15 21 12 0 15 7 10 33 -3 17 -10 64 -15 102 -6 39
-13 82 -16 98 -5 24 -3 27 20 27 26 0 26 -1 26 -76z"/>
<path d="M920 1020 c0 -53 4 -90 10 -90 6 0 10 37 10 90 0 53 -4 90 -10 90 -6
0 -10 -37 -10 -90z"/>
</g>
</svg>
